<?xml version="1.0" encoding="UTF-8" standalone="no"?>
<svg
   xmlns:dc="http://purl.org/dc/elements/1.1/"
   xmlns:cc="http://creativecommons.org/ns#"
   xmlns:rdf="http://www.w3.org/1999/02/22-rdf-syntax-ns#"
   xmlns:svg="http://www.w3.org/2000/svg"
   xmlns="http://www.w3.org/2000/svg"
   xmlns:sodipodi="http://sodipodi.sourceforge.net/DTD/sodipodi-0.dtd"
   xmlns:inkscape="http://www.inkscape.org/namespaces/inkscape"
   version="1.1"
   viewBox="0 0 193.641 193.641"
   enable-background="new 0 0 193.641 193.641"
   id="svg22"
   sodipodi:docname="beer70.svg"
   inkscape:version="1.0.1 (3bc2e813f5, 2020-09-07)">
  <metadata
     id="metadata28">
    <rdf:RDF>
      <cc:Work
         rdf:about="">
        <dc:format>image/svg+xml</dc:format>
        <dc:type
           rdf:resource="http://purl.org/dc/dcmitype/StillImage" />
        <dc:title></dc:title>
      </cc:Work>
    </rdf:RDF>
  </metadata>
  <defs
     id="defs26" />
  <sodipodi:namedview
     pagecolor="#ffffff"
     bordercolor="#666666"
     borderopacity="1"
     objecttolerance="10"
     gridtolerance="10"
     guidetolerance="10"
     inkscape:pageopacity="0"
     inkscape:pageshadow="2"
     inkscape:window-width="1920"
     inkscape:window-height="1027"
     id="namedview24"
     showgrid="false"
     inkscape:zoom="4.3947305"
     inkscape:cx="96.8205"
     inkscape:cy="124.12593"
     inkscape:window-x="-8"
     inkscape:window-y="-8"
     inkscape:window-maximized="1"
     inkscape:current-layer="svg22" />
  <path
     d="m166.259,70.223c-0.18-4.007-3.48-7.164-7.492-7.164h-16.304l-.583-13.208c0-0.008-0.002-0.015-0.002-0.023-0.191-20.013-16.523-36.236-36.581-36.236-0.824,0-1.653,0.03-2.485,0.089-6.099-8.453-16.03-13.681-26.604-13.681-15.435,0-28.66,10.918-31.97,25.604-8.937,4.653-14.704,13.837-14.85,24.177-0.001,0.023-0.005,0.046-0.006,0.069l-6,135.959c-0.09,2.045 0.659,4.037 2.074,5.516 1.415,1.479 3.372,2.315 5.419,2.315h109.513c2.047,0 4.004-0.836 5.419-2.315 1.415-1.479 2.164-3.471 2.074-5.516l-.818-18.544h15.705c2.048,0 4.006-0.837 5.421-2.317 1.415-1.48 2.163-3.474 2.071-5.519l-4.001-89.206zm-112.989-32.184c2.925-0.923 4.993-3.534 5.222-6.592 0.69-9.223 8.472-16.447 17.716-16.447 6.865,0 12.996,3.86 16,10.073 1.516,3.136 4.989,4.815 8.391,4.054 1.587-0.355 3.168-0.536 4.698-0.536 9.269,0 17.192,5.872 20.246,14.09h-78.743c1.56-2.144 3.794-3.798 6.47-4.642zm-14.557,140.602l5.337-120.959h83.16l4.505,102.054c0,0.011-0.002,0.02-0.002,0.03 0,0.151 0.014,0.299 0.022,0.448l.813,18.427h-93.835zm107.687-26.375l-3.274-74.207h8.471l3.327,74.207h-8.524z"
     id="path20" />
  <path
     style="fill:#ffcc00;stroke-width:0.197199"
     d="m 39.049003,177.2695 c 0.07492,-0.68147 1.272396,-20.9267 2.661048,-44.9894 1.388652,-24.06269 2.570075,-43.923388 2.625385,-44.134877 L 44.436,87.760699 H 85.823001 127.21 l 0.1446,1.751723 c 0.21869,2.649274 5.13274,86.936188 5.13274,88.037928 v 0.95817 H 85.700056 38.912776 Z"
     id="path30" />
  <path
     style="fill:#ffeeaa;stroke-width:0.227545"
     d="m 48.387164,41.20196 c 1.045293,-1.000238 2.064989,-1.706562 3.299406,-2.285434 3.753158,-1.760025 4.219756,-2.033222 4.970454,-2.910244 1.155222,-1.349616 1.65614,-2.615025 2.033064,-5.13588 0.579278,-3.874187 1.685505,-6.476232 3.93171,-9.248092 2.122092,-2.618703 4.748083,-4.403147 8.263293,-5.615173 2.013926,-0.69439 2.360596,-0.744153 5.228792,-0.750573 3.519925,-0.0079 4.907566,0.295903 7.850311,1.718585 3.253785,1.573056 5.90322,4.141479 7.75293,7.515868 1.218264,2.222455 2.168686,3.245742 3.747295,4.034582 1.815825,0.907379 3.283187,1.068289 5.649111,0.61948 9.57717,-1.816758 19.01647,2.869759 23.43635,11.635916 0.39257,0.778619 0.71378,1.520985 0.71378,1.649703 0,0.159473 -12.48721,0.231623 -39.194673,0.226467 l -39.194667,-0.0076 z"
     id="path32" />
</svg>
