<?xml version='1.0' encoding='iso-8859-1'?>
<!DOCTYPE svg PUBLIC '-//W3C//DTD SVG 1.1//EN' 'http://www.w3.org/Graphics/SVG/1.1/DTD/svg11.dtd'>
<svg version="1.1" xmlns="http://www.w3.org/2000/svg" viewBox="0 0 193.641 193.641" xmlns:xlink="http://www.w3.org/1999/xlink" enable-background="new 0 0 193.641 193.641">
  <path d="m166.259,70.223c-0.18-4.007-3.48-7.164-7.492-7.164h-16.304l-.583-13.208c0-0.008-0.002-0.015-0.002-0.023-0.191-20.013-16.523-36.236-36.581-36.236-0.824,0-1.653,0.03-2.485,0.089-6.099-8.453-16.03-13.681-26.604-13.681-15.435,0-28.66,10.918-31.97,25.604-8.937,4.653-14.704,13.837-14.85,24.177-0.001,0.023-0.005,0.046-0.006,0.069l-6,135.959c-0.09,2.045 0.659,4.037 2.074,5.516 1.415,1.479 3.372,2.315 5.419,2.315h109.513c2.047,0 4.004-0.836 5.419-2.315 1.415-1.479 2.164-3.471 2.074-5.516l-.818-18.544h15.705c2.048,0 4.006-0.837 5.421-2.317 1.415-1.48 2.163-3.474 2.071-5.519l-4.001-89.206zm-112.989-32.184c2.925-0.923 4.993-3.534 5.222-6.592 0.69-9.223 8.472-16.447 17.716-16.447 6.865,0 12.996,3.86 16,10.073 1.516,3.136 4.989,4.815 8.391,4.054 1.587-0.355 3.168-0.536 4.698-0.536 9.269,0 17.192,5.872 20.246,14.09h-78.743c1.56-2.144 3.794-3.798 6.47-4.642zm-14.557,140.602l5.337-120.959h83.16l4.505,102.054c0,0.011-0.002,0.02-0.002,0.03 0,0.151 0.014,0.299 0.022,0.448l.813,18.427h-93.835zm107.687-26.375l-3.274-74.207h8.471l3.327,74.207h-8.524z"/>
</svg>
