<?xml version="1.0" encoding="UTF-8" standalone="no"?>
<svg
   xmlns:dc="http://purl.org/dc/elements/1.1/"
   xmlns:cc="http://creativecommons.org/ns#"
   xmlns:rdf="http://www.w3.org/1999/02/22-rdf-syntax-ns#"
   xmlns:svg="http://www.w3.org/2000/svg"
   xmlns="http://www.w3.org/2000/svg"
   xmlns:sodipodi="http://sodipodi.sourceforge.net/DTD/sodipodi-0.dtd"
   xmlns:inkscape="http://www.inkscape.org/namespaces/inkscape"
   version="1.1"
   viewBox="0 0 193.641 193.641"
   enable-background="new 0 0 193.641 193.641"
   id="svg22"
   sodipodi:docname="beer0.svg"
   inkscape:version="1.0.1 (3bc2e813f5, 2020-09-07)">
  <metadata
     id="metadata28">
    <rdf:RDF>
      <cc:Work
         rdf:about="">
        <dc:format>image/svg+xml</dc:format>
        <dc:type
           rdf:resource="http://purl.org/dc/dcmitype/StillImage" />
        <dc:title></dc:title>
      </cc:Work>
    </rdf:RDF>
  </metadata>
  <defs
     id="defs26" />
  <sodipodi:namedview
     pagecolor="#ffffff"
     bordercolor="#666666"
     borderopacity="1"
     objecttolerance="10"
     gridtolerance="10"
     guidetolerance="10"
     inkscape:pageopacity="0"
     inkscape:pageshadow="2"
     inkscape:window-width="1920"
     inkscape:window-height="1027"
     id="namedview24"
     showgrid="false"
     inkscape:zoom="4.3947305"
     inkscape:cx="53.018041"
     inkscape:cy="96.8205"
     inkscape:window-x="-8"
     inkscape:window-y="-8"
     inkscape:window-maximized="1"
     inkscape:current-layer="svg22" />
  <path
     d="m166.259,70.223c-0.18-4.007-3.48-7.164-7.492-7.164h-16.304l-.583-13.208c0-0.008-0.002-0.015-0.002-0.023-0.191-20.013-16.523-36.236-36.581-36.236-0.824,0-1.653,0.03-2.485,0.089-6.099-8.453-16.03-13.681-26.604-13.681-15.435,0-28.66,10.918-31.97,25.604-8.937,4.653-14.704,13.837-14.85,24.177-0.001,0.023-0.005,0.046-0.006,0.069l-6,135.959c-0.09,2.045 0.659,4.037 2.074,5.516 1.415,1.479 3.372,2.315 5.419,2.315h109.513c2.047,0 4.004-0.836 5.419-2.315 1.415-1.479 2.164-3.471 2.074-5.516l-.818-18.544h15.705c2.048,0 4.006-0.837 5.421-2.317 1.415-1.48 2.163-3.474 2.071-5.519l-4.001-89.206zm-112.989-32.184c2.925-0.923 4.993-3.534 5.222-6.592 0.69-9.223 8.472-16.447 17.716-16.447 6.865,0 12.996,3.86 16,10.073 1.516,3.136 4.989,4.815 8.391,4.054 1.587-0.355 3.168-0.536 4.698-0.536 9.269,0 17.192,5.872 20.246,14.09h-78.743c1.56-2.144 3.794-3.798 6.47-4.642zm-14.557,140.602l5.337-120.959h83.16l4.505,102.054c0,0.011-0.002,0.02-0.002,0.03 0,0.151 0.014,0.299 0.022,0.448l.813,18.427h-93.835zm107.687-26.375l-3.274-74.207h8.471l3.327,74.207h-8.524z"
     id="path20" />
  <path
     style="fill:#ececec;stroke-width:0.0205059"
     d="m 39.049003,178.49512 c 0.07492,-0.007 1.272396,-0.22628 2.661048,-0.48648 1.388652,-0.2602 2.570075,-0.47496 2.625385,-0.47725 l 0.100564,-0.004 H 85.823001 127.21 l 0.1446,0.0189 c 0.21869,0.0286 5.13274,0.94007 5.13274,0.95198 v 0.0104 H 85.700056 38.912776 Z"
     id="path30" />
  <path
     style="fill:#800000;stroke:#cd0000;stroke-width:1px;stroke-linecap:butt;stroke-linejoin:miter;stroke-opacity:1;fill-opacity:0"
     d="m 44.05,57.682 88.498,120.959 H 38.713 L 127.21,57.682 Z"
     id="path57" />
</svg>
